# xmcd
#
# Track frame offsets: 
#        182
#        17357
#        40332
#        58332
#
# Disc length: 1089 seconds
#
# Revision: 0
# Processed by: cddbd v1.5.2PL0 Copyright (c) Steve Scherf et al.
# Submitted via: ExactAudioCopy v0.99pb5
#
DISCID=2c043f04
DTITLE=Jamie Watson - All Cried Out
DYEAR=1995
DGENRE=Pop
TTITLE0=All Cried Out (Carved in Stone Radio Edit)
TTITLE1=All Cried Out (Head 2 Head Extended Mix)
TTITLE2=It's Alight
TTITLE3=All Cried Out (Carved in Stone Extended Mix)
EXTD=
EXTT0=
EXTT1=
EXTT2=
EXTT3=
PLAYORDER=
